<svg width="650" height="650" viewBox="0 0 650 650" fill="none" xmlns="http://www.w3.org/2000/svg">
<circle cx="324.999" cy="325" r="325" fill="white"/>
<path d="M188.557 240.273H198.642L218.812 274.222H219.665L239.835 240.273H249.92L223.642 283.028V313H214.835V283.028L188.557 240.273ZM319.256 276.636C319.256 284.307 317.871 290.936 315.102 296.523C312.332 302.11 308.532 306.419 303.702 309.449C298.873 312.479 293.357 313.994 287.154 313.994C280.951 313.994 275.435 312.479 270.606 309.449C265.776 306.419 261.977 302.11 259.207 296.523C256.437 290.936 255.052 284.307 255.052 276.636C255.052 268.966 256.437 262.337 259.207 256.75C261.977 251.163 265.776 246.854 270.606 243.824C275.435 240.794 280.951 239.278 287.154 239.278C293.357 239.278 298.873 240.794 303.702 243.824C308.532 246.854 312.332 251.163 315.102 256.75C317.871 262.337 319.256 268.966 319.256 276.636ZM310.734 276.636C310.734 270.339 309.68 265.024 307.573 260.692C305.49 256.359 302.661 253.08 299.086 250.855C295.535 248.63 291.558 247.517 287.154 247.517C282.751 247.517 278.762 248.63 275.187 250.855C271.636 253.08 268.807 256.359 266.7 260.692C264.616 265.024 263.575 270.339 263.575 276.636C263.575 282.934 264.616 288.249 266.7 292.581C268.807 296.913 271.636 300.192 275.187 302.418C278.762 304.643 282.751 305.756 287.154 305.756C291.558 305.756 295.535 304.643 299.086 302.418C302.661 300.192 305.49 296.913 307.573 292.581C309.68 288.249 310.734 282.934 310.734 276.636ZM381.792 240.273H390.599V288.426C390.599 293.398 389.427 297.837 387.083 301.743C384.763 305.625 381.484 308.691 377.246 310.94C373.009 313.166 368.037 314.278 362.332 314.278C356.626 314.278 351.655 313.166 347.417 310.94C343.179 308.691 339.888 305.625 337.545 301.743C335.225 297.837 334.065 293.398 334.065 288.426V240.273H342.871V287.716C342.871 291.267 343.653 294.428 345.215 297.197C346.778 299.944 349.003 302.11 351.891 303.696C354.803 305.259 358.283 306.04 362.332 306.04C366.38 306.04 369.86 305.259 372.772 303.696C375.684 302.11 377.909 299.944 379.448 297.197C381.011 294.428 381.792 291.267 381.792 287.716V240.273ZM408.186 313V240.273H432.76C438.441 240.273 443.105 241.243 446.751 243.185C450.397 245.102 453.096 247.742 454.848 251.104C456.6 254.465 457.475 258.289 457.475 262.574C457.475 266.859 456.6 270.659 454.848 273.973C453.096 277.287 450.409 279.892 446.787 281.786C443.164 283.656 438.536 284.591 432.902 284.591H413.015V276.636H432.618C436.5 276.636 439.625 276.068 441.993 274.932C444.384 273.795 446.112 272.186 447.177 270.102C448.266 267.995 448.811 265.486 448.811 262.574C448.811 259.662 448.266 257.117 447.177 254.939C446.088 252.761 444.348 251.08 441.957 249.896C439.566 248.689 436.405 248.085 432.475 248.085H416.993V313H408.186ZM442.419 280.33L460.316 313H450.089L432.475 280.33H442.419Z" fill="black"/>
<path d="M173.807 410V337.273H198.381C204.086 337.273 208.75 338.303 212.372 340.362C216.018 342.398 218.717 345.156 220.469 348.636C222.221 352.116 223.097 355.999 223.097 360.284C223.097 364.569 222.221 368.464 220.469 371.967C218.741 375.471 216.065 378.265 212.443 380.348C208.821 382.408 204.181 383.438 198.523 383.438H180.909V375.625H198.239C202.145 375.625 205.282 374.95 207.649 373.601C210.017 372.251 211.733 370.429 212.798 368.132C213.887 365.812 214.432 363.196 214.432 360.284C214.432 357.372 213.887 354.768 212.798 352.472C211.733 350.175 210.005 348.376 207.614 347.074C205.223 345.748 202.05 345.085 198.097 345.085H182.614V410H173.807ZM237.283 410V337.273H246.09V402.188H279.897V410H237.283ZM301.106 410H291.873L318.578 337.273H327.669L354.373 410H345.14L323.407 348.778H322.839L301.106 410ZM304.515 381.591H341.731V389.403H304.515V381.591ZM420.806 360H411.999C411.478 357.467 410.567 355.241 409.265 353.324C407.987 351.406 406.424 349.796 404.577 348.494C402.754 347.169 400.73 346.174 398.505 345.511C396.28 344.848 393.96 344.517 391.545 344.517C387.141 344.517 383.152 345.63 379.577 347.855C376.026 350.08 373.197 353.359 371.09 357.692C369.007 362.024 367.965 367.339 367.965 373.636C367.965 379.934 369.007 385.249 371.09 389.581C373.197 393.913 376.026 397.192 379.577 399.418C383.152 401.643 387.141 402.756 391.545 402.756C393.96 402.756 396.28 402.424 398.505 401.761C400.73 401.098 402.754 400.116 404.577 398.814C406.424 397.488 407.987 395.866 409.265 393.949C410.567 392.008 411.478 389.782 411.999 387.273H420.806C420.143 390.99 418.936 394.316 417.184 397.251C415.432 400.187 413.254 402.685 410.65 404.744C408.046 406.78 405.122 408.331 401.879 409.396C398.659 410.462 395.214 410.994 391.545 410.994C385.342 410.994 379.826 409.479 374.996 406.449C370.167 403.419 366.367 399.11 363.597 393.523C360.827 387.936 359.442 381.307 359.442 373.636C359.442 365.966 360.827 359.337 363.597 353.75C366.367 348.163 370.167 343.854 374.996 340.824C379.826 337.794 385.342 336.278 391.545 336.278C395.214 336.278 398.659 336.811 401.879 337.876C405.122 338.942 408.046 340.504 410.65 342.564C413.254 344.6 415.432 347.086 417.184 350.021C418.936 352.933 420.143 356.259 420.806 360ZM435.037 410V337.273H478.929V345.085H443.844V369.659H476.657V377.472H443.844V402.188H479.498V410H435.037Z" fill="black"/>
</svg>
