<svg width="650" height="650" viewBox="0 0 650 650" fill="none" xmlns="http://www.w3.org/2000/svg">
<circle cx="324.999" cy="325" r="325" fill="white"/>
<path d="M354.566 214.385C353.303 214.496 350.751 210.997 350.287 209.975C349.822 208.954 347.813 203.982 340.436 203.435C333.058 202.888 326.702 203.75 326.112 205.522C325.521 207.293 330.831 214.981 333.721 216.37C336.611 217.759 340.411 219.274 344.647 218.098C348.883 216.922 350.94 215.678 353.109 215.712C355.278 215.745 353.22 216.97 351.211 217.895C350.103 218.379 348.113 219.715 345.577 221.051C345.577 221.051 339.283 226.579 337.052 228.714C334.82 230.849 331.19 234.32 328.905 238.933C326.62 243.546 319.567 252.696 312.233 257.754C304.899 262.813 293.838 267.92 290.096 267.92C286.354 267.92 287.859 266.323 284.824 265.839C281.789 265.355 278.085 263.22 277.112 261.506C276.139 259.792 272.872 249.017 266.133 246.393C259.395 243.769 249.592 242.84 247.133 244.626C244.674 246.412 257.154 259.899 261.912 261.274C266.671 262.649 274.397 262.944 276.987 264.285C279.576 265.626 287.22 268.395 285.811 269.416C284.403 270.437 280.332 272.592 274.426 272.592C268.52 272.592 264.792 274.484 262.624 268.545C260.455 262.605 251.422 256.815 246.978 257.362C242.503 257.85 238.003 258.071 233.501 258.025C231.027 257.948 230.112 259.671 232.175 262.484C234.237 265.296 240.356 275.598 246.934 277.263C253.513 278.928 259.375 279.233 264.153 276.571C268.931 273.908 275.859 275.317 274.101 276.571C272.344 277.825 265.794 279.94 263.142 282.956C260.489 285.972 258.199 302.392 258.422 304.914C258.645 307.436 259.23 311.575 268.864 303.772C278.497 295.968 280.39 286.001 281.861 280.637C283.333 275.273 284.18 273.86 290.778 271.473C297.376 269.087 307.503 266.013 312.664 260.93C317.824 255.847 323.052 252.313 322.171 255.905C321.29 259.497 321.687 268.888 319.223 272.543C318.777 273.234 318.396 273.965 318.085 274.726C299.613 275.946 283.967 288.949 281.111 306.962C278.39 324.103 288.135 340.562 303.96 348.007C305.068 348.53 306.201 349.009 307.348 349.46C307.692 349.585 308.041 349.711 308.394 349.827C309.37 350.235 310.273 350.799 311.066 351.498C312.073 352.383 312.888 353.465 313.461 354.677C314.034 355.889 314.353 357.205 314.399 358.545C314.444 359.885 314.215 361.22 313.725 362.468C313.235 363.716 312.495 364.851 311.55 365.802C313.128 365.438 314.591 364.69 315.81 363.624C316.709 365.84 318.383 367.654 320.52 368.726C322.477 367.682 324.023 366.007 324.906 363.972C326.409 365.625 328.431 366.714 330.638 367.061L330.885 367.1C329.829 366.166 328.986 365.016 328.414 363.727C327.842 362.439 327.553 361.043 327.568 359.634C327.583 358.224 327.9 356.834 328.499 355.558C329.098 354.282 329.965 353.15 331.04 352.238C331.715 351.669 332.462 351.19 333.261 350.815C334.196 350.578 335.125 350.302 336.035 349.997C336.655 349.794 337.27 349.571 337.875 349.339C350.553 344.444 360.201 333.606 362.384 319.838C365.686 299.023 350.64 279.248 328.658 275.303C328.377 273.753 328.053 272.103 327.801 271.11C327.23 268.845 326.625 262.837 328.338 255.958C330.052 249.08 332.647 238.589 336.447 234.218C340.247 229.847 344.676 224.89 343.34 228.753C342.004 232.616 343.064 236.367 341.806 239.044C340.547 241.721 338.112 253.151 339.501 256.171C340.891 259.192 339.564 257.735 339.4 262.687C339.235 267.639 342.27 274.029 345.465 275.467C348.66 276.905 352.635 275.361 354.537 273.173C356.439 270.984 359.078 266.115 356.875 262.344C354.673 258.572 353.182 256.467 351.202 255.218C349.222 253.969 349.996 251.064 349.309 248.586C348.622 246.107 346.748 240.211 345.475 238.454C344.202 236.697 345.911 229.813 346.356 228.951C346.801 228.09 347.063 222.586 360.598 216.404L360.114 211.95C357.78 213.054 355.457 214.308 354.566 214.385Z" fill="#870711"/>
<path d="M292.395 176.336C293.653 176.225 296.209 179.725 296.669 180.746C297.129 181.768 299.143 186.734 306.52 187.286C313.898 187.838 320.254 186.972 320.844 185.2C321.435 183.428 316.125 175.741 313.235 174.351C310.345 172.962 306.545 171.447 302.314 172.618C298.083 173.79 296.021 175.039 293.847 175.01C291.673 174.981 293.736 173.751 295.749 172.827C296.853 172.313 298.843 171.006 301.379 169.67C301.379 169.67 307.697 164.142 309.904 162.002C312.112 159.863 315.766 156.402 318.056 151.788C320.346 147.175 327.389 138.026 334.723 132.967C342.057 127.908 353.118 122.801 356.865 122.801C360.612 122.801 359.097 124.399 362.132 124.883C365.167 125.367 368.871 127.502 369.844 129.215C370.817 130.929 374.084 141.705 380.823 144.328C387.561 146.952 397.364 147.882 399.828 146.095C402.292 144.309 389.807 130.822 385.049 129.443C380.29 128.063 372.559 127.778 369.974 126.432C367.389 125.086 359.736 122.322 361.145 121.3C362.553 120.279 366.624 118.13 372.53 118.13C378.436 118.13 382.164 116.237 384.332 122.177C386.501 128.116 395.539 133.896 399.978 133.374C404.453 132.89 408.954 132.67 413.455 132.715C415.933 132.793 416.843 131.069 414.786 128.257C412.729 125.444 406.6 115.143 400.022 113.478C393.443 111.812 387.581 111.507 382.803 114.17C378.025 116.832 371.097 115.424 372.855 114.17C374.612 112.916 381.162 110.82 383.814 107.819C386.467 104.817 388.762 88.3536 388.52 85.8219C388.278 83.2901 387.706 79.1608 378.073 86.9643C368.44 94.7678 366.547 104.735 365.075 110.099C363.604 115.462 362.757 116.876 356.159 119.263C349.56 121.649 339.453 124.699 334.302 129.791C329.151 134.884 323.909 138.408 324.79 134.826C325.671 131.244 325.274 121.843 327.738 118.188C328.18 117.504 328.559 116.781 328.871 116.029C347.348 114.809 362.989 101.806 365.845 83.7887C368.566 66.6133 358.821 50.169 342.996 42.7237C341.886 42.2009 340.757 41.7168 339.608 41.2715C339.264 41.1408 338.915 41.0197 338.562 40.9035C337.586 40.4965 336.683 39.9323 335.89 39.2335C334.885 38.3466 334.071 37.2638 333.499 36.0515C332.927 34.8391 332.609 33.5227 332.563 32.183C332.518 30.8433 332.747 29.5084 333.236 28.2602C333.724 27.0119 334.463 25.8767 335.406 24.9239C333.828 25.2918 332.366 26.0415 331.146 27.1071C330.247 24.8902 328.573 23.0753 326.436 22C324.48 23.047 322.934 24.7237 322.05 26.7586C320.547 25.1065 318.525 24.0169 316.318 23.6701L316.076 23.6314C317.131 24.5661 317.972 25.7166 318.544 27.0049C319.115 28.2933 319.403 29.6893 319.388 31.0985C319.373 32.5078 319.055 33.8973 318.456 35.173C317.857 36.4488 316.991 37.5809 315.916 38.4928C315.241 39.0617 314.494 39.5402 313.695 39.916C312.76 40.1532 311.831 40.4291 310.926 40.7293C310.301 40.9374 309.691 41.1601 309.081 41.3925C296.403 46.2817 286.755 57.1253 284.572 70.8927C281.27 91.7083 296.316 111.483 318.298 115.429C318.579 116.978 318.903 118.628 319.155 119.616C319.726 121.886 320.331 127.894 318.618 134.773C316.904 141.651 314.309 152.142 310.509 156.513C306.709 160.884 302.28 165.841 303.616 161.978C304.952 158.115 303.897 154.364 305.15 151.687C306.404 149.01 308.844 137.58 307.455 134.56C306.065 131.539 307.392 132.996 307.556 128.044C307.721 123.092 304.686 116.702 301.496 115.264C298.305 113.826 294.321 115.37 292.419 117.559C290.517 119.747 287.883 124.616 290.086 128.388C292.288 132.159 293.818 134.264 295.798 135.513C297.778 136.762 297.003 139.667 297.7 142.15C298.397 144.633 300.261 150.525 301.534 152.282C302.807 154.039 301.099 160.923 300.653 161.785C300.208 162.646 299.946 168.15 286.411 174.332L286.896 178.786C289.176 177.667 291.499 176.414 292.395 176.336Z" fill="#870711"/>
<path d="M304.434 227.654C304.323 226.391 307.822 223.84 308.844 223.375C309.865 222.91 314.837 220.906 315.384 213.524C315.931 206.141 315.069 199.79 313.297 199.2C311.526 198.609 303.843 203.919 302.449 206.809C301.055 209.699 299.545 213.5 300.721 217.735C301.897 221.971 303.141 224.028 303.112 226.197C303.083 228.366 301.849 226.308 300.924 224.3C300.416 223.191 299.104 221.201 297.768 218.665C297.768 218.665 292.245 212.347 290.105 210.14C287.965 207.933 284.504 204.278 279.886 201.993C275.268 199.708 266.128 192.655 261.069 185.326C256.011 177.997 250.904 166.931 250.904 163.184C250.904 159.437 252.491 160.967 252.976 157.912C253.46 154.857 255.599 151.174 257.308 150.201C259.017 149.228 269.798 145.96 272.421 139.221C275.045 132.483 275.974 122.68 274.188 120.221C272.402 117.762 258.915 130.242 257.54 135C256.166 139.759 255.88 147.485 254.525 150.075C253.169 152.665 250.415 160.308 249.393 158.9C248.372 157.491 246.218 153.425 246.223 147.514C246.227 141.603 244.325 137.881 250.27 135.712C256.214 133.543 261.994 124.51 261.457 120.071C260.969 115.594 260.748 111.092 260.794 106.589C260.876 104.116 259.148 103.201 256.34 105.263C253.532 107.325 243.221 113.449 241.556 120.027C239.891 126.606 239.586 132.464 242.248 137.242C244.911 142.019 243.507 148.947 242.248 147.19C240.99 145.432 238.898 138.883 235.897 136.23C232.896 133.577 216.466 131.287 213.939 131.51C211.412 131.733 207.283 132.318 215.086 141.952C222.89 151.585 232.852 153.478 238.221 154.949C243.589 156.421 244.998 157.268 247.38 163.866C249.761 170.464 252.816 180.591 257.908 185.752C263.001 190.912 266.525 196.14 262.933 195.259C259.341 194.378 249.95 194.775 246.295 192.311C245.613 191.865 244.89 191.484 244.136 191.174C242.916 172.701 229.914 157.055 211.901 154.199C194.721 151.478 178.276 161.223 170.831 177.048C170.308 178.156 169.834 179.289 169.379 180.436C169.248 180.785 169.122 181.129 169.006 181.482C168.598 182.458 168.032 183.361 167.331 184.154C166.446 185.161 165.364 185.976 164.152 186.549C162.94 187.123 161.623 187.442 160.283 187.487C158.943 187.532 157.608 187.303 156.36 186.813C155.112 186.323 153.978 185.583 153.026 184.638C153.392 186.216 154.14 187.679 155.205 188.898C152.99 189.799 151.177 191.473 150.103 193.608C151.147 195.566 152.825 197.113 154.861 197.994C153.206 199.496 152.114 201.518 151.768 203.726C151.768 203.808 151.744 203.89 151.734 203.973C152.817 202.753 154.187 201.821 155.72 201.262C157.253 200.702 158.901 200.533 160.515 200.768C162.13 201.004 163.66 201.638 164.969 202.612C166.278 203.586 167.324 204.871 168.014 206.35C168.256 207.284 168.527 208.213 168.832 209.123C169.035 209.743 169.258 210.358 169.49 210.963C174.384 223.641 185.223 233.289 198.99 235.472C219.83 238.774 239.581 223.733 243.526 201.751C245.07 201.465 246.726 201.141 247.714 200.889C249.979 200.318 255.987 199.713 262.87 201.426C269.754 203.14 280.239 205.735 284.606 209.535C288.972 213.335 293.934 217.764 290.071 216.428C286.208 215.092 282.456 216.152 279.779 214.894C277.102 213.635 265.673 211.2 262.652 212.589C259.632 213.979 261.089 212.652 256.137 212.493C251.184 212.333 244.799 215.358 243.357 218.553C241.914 221.748 243.468 225.723 245.651 227.625C247.835 229.528 252.709 232.166 256.48 229.963C260.251 227.761 262.357 226.231 263.606 224.251C264.855 222.271 267.76 223.041 270.243 222.344C272.726 221.647 278.632 219.831 280.375 218.573C282.118 217.314 289.011 219.008 289.877 219.454C290.744 219.899 296.238 220.161 302.42 233.696L306.874 233.212C305.765 230.869 304.516 228.545 304.434 227.654Z" fill="#870711"/>
<path d="M344.193 161.257C344.304 162.52 340.804 165.072 339.783 165.536C338.761 166.001 333.79 168.01 333.243 175.387C332.696 182.765 333.557 189.121 335.329 189.712C337.101 190.302 344.783 184.992 346.178 182.102C347.572 179.212 349.082 175.412 347.906 171.181C346.729 166.95 345.485 164.888 345.514 162.714C345.543 160.541 346.778 162.603 347.702 164.617C348.211 165.72 349.523 167.71 350.859 170.246C350.859 170.246 356.382 176.564 358.522 178.771C360.661 180.979 364.127 184.634 368.741 186.923C373.354 189.213 382.498 196.256 387.552 203.59C392.606 210.924 397.718 221.986 397.718 225.728C397.718 229.47 396.116 227.964 395.637 230.999C395.157 234.034 393.013 237.738 391.28 238.711C389.547 239.684 378.79 242.951 376.167 249.69C373.543 256.428 372.613 266.231 374.4 268.695C376.186 271.159 389.673 258.674 391.047 253.916C392.422 249.157 392.718 241.426 394.058 238.841C395.399 236.256 398.168 228.603 399.19 230.012C400.211 231.42 402.365 235.492 402.361 241.397C402.356 247.303 404.258 251.031 398.314 253.199C392.369 255.368 386.589 264.406 387.126 268.845C387.614 273.32 387.835 277.821 387.79 282.322C387.707 284.801 389.435 285.711 392.243 283.653C395.051 281.596 405.362 275.467 407.027 268.889C408.692 262.31 408.997 256.448 406.335 251.67C403.672 246.892 405.076 239.965 406.335 241.722C407.593 243.479 409.685 250.029 412.686 252.681C415.687 255.334 432.117 257.624 434.644 257.406C437.171 257.188 441.3 256.593 433.497 246.96C425.693 237.326 415.731 235.433 410.362 233.962C404.994 232.49 403.585 231.643 401.204 225.045C398.822 218.447 395.767 208.32 390.675 203.159C385.582 197.999 382.058 192.776 385.65 193.652C389.242 194.528 398.633 194.136 402.288 196.6C402.985 197.056 403.724 197.443 404.495 197.757C405.715 216.235 418.718 231.875 436.731 234.732C453.911 237.452 470.355 227.707 477.8 211.883C478.323 210.776 478.799 209.646 479.228 208.494C479.359 208.15 479.485 207.802 479.601 207.448C480.01 206.472 480.576 205.57 481.276 204.776C482.163 203.771 483.245 202.958 484.457 202.386C485.669 201.814 486.985 201.496 488.324 201.45C489.663 201.405 490.998 201.634 492.246 202.122C493.494 202.611 494.629 203.349 495.581 204.292C495.215 202.715 494.467 201.252 493.402 200.032C495.617 199.131 497.43 197.458 498.505 195.322C497.46 193.364 495.783 191.818 493.746 190.936C495.401 189.435 496.493 187.412 496.839 185.205C496.839 185.122 496.864 185.045 496.873 184.963C495.939 186.017 494.789 186.859 493.501 187.43C492.213 188.001 490.817 188.289 489.409 188.274C488 188.259 486.611 187.941 485.335 187.342C484.06 186.743 482.928 185.877 482.017 184.803C481.446 184.129 480.967 183.382 480.594 182.581C480.352 181.647 480.08 180.717 479.775 179.807C479.572 179.188 479.349 178.578 479.117 177.968C474.223 165.289 463.384 155.642 449.617 153.458C428.801 150.157 409.026 165.202 405.081 187.185C403.537 187.465 401.881 187.79 400.894 188.041C398.628 188.613 392.621 189.218 385.737 187.504C378.853 185.79 368.368 183.196 364.002 179.396C359.635 175.596 354.673 171.166 358.536 172.502C362.399 173.838 366.151 172.778 368.828 174.037C371.505 175.296 382.934 177.73 385.955 176.341C388.976 174.952 387.518 176.278 392.471 176.443C397.423 176.607 403.808 173.572 405.25 170.377C406.693 167.182 405.139 163.208 402.956 161.305C400.773 159.403 395.898 156.77 392.127 158.967C388.356 161.165 386.25 162.704 385.001 164.684C383.752 166.664 380.848 165.89 378.364 166.587C375.881 167.284 369.985 169.148 368.228 170.421C366.47 171.694 359.592 169.985 358.725 169.54C357.859 169.094 352.364 168.833 346.182 155.298L341.729 155.782C342.862 158.062 344.11 160.366 344.193 161.257Z" fill="#870711"/>
<path d="M177.716 542.999H176.46V498.819V454.639H180.477L237.961 535.469C238.129 534.632 238.212 534.004 238.212 533.586V498.819V454.639H239.467V498.819V542.999H235.074L177.841 462.546C177.757 462.881 177.716 463.383 177.716 464.053V498.819V542.999Z" fill="#870711"/>
<path d="M292.432 482.754C296.532 482.754 300.423 483.549 304.105 485.139C307.787 486.728 310.966 488.904 313.644 491.665C316.321 494.343 318.455 497.522 320.045 501.204C321.635 504.802 322.43 508.693 322.43 512.877V542.999H317.033V512.877C317.033 508.86 316.28 505.095 314.773 501.581C313.267 498.066 311.175 495.012 308.498 492.418C305.904 489.741 302.85 487.649 299.336 486.143C295.905 484.636 292.181 483.883 288.165 483.883H283.019H252.018V496.937V499.321V532.959V533.084V542.999H244.612V533.084V464.178C244.529 463.76 244.487 463.007 244.487 461.919C244.571 460.831 244.612 459.743 244.612 458.656V454.639H252.018V456.02V482.754H279.881C281.722 482.754 283.437 482.419 285.027 481.75C286.701 480.997 288.123 480.034 289.295 478.863C290.55 477.608 291.512 476.185 292.181 474.596C292.934 472.922 293.311 471.165 293.311 469.324C293.311 467.483 292.934 465.768 292.181 464.178C291.512 462.505 290.55 461.082 289.295 459.911C288.123 458.656 286.701 457.693 285.027 457.024C283.437 456.271 281.722 455.894 279.881 455.894H252.018V454.639H283.019C285.027 454.639 286.91 455.058 288.667 455.894C290.424 456.647 291.972 457.693 293.311 459.032C294.65 460.287 295.696 461.835 296.449 463.676C297.202 465.433 297.578 467.316 297.578 469.324C297.578 472.336 296.742 475.056 295.068 477.482C293.478 479.825 291.386 481.582 288.793 482.754H292.432Z" fill="#870711"/>
<path d="M327.467 542.999V454.639H334.872H381.688L384.951 464.68C380.265 461.751 375.287 459.576 370.015 458.153C364.828 456.647 359.472 455.894 353.95 455.894H334.872V456.02V496.937V499.321V501.706L369.011 494.803L369.262 499.823C367.756 499.07 366.208 498.61 364.618 498.443C363.029 498.192 361.397 498.15 359.723 498.317C358.05 498.401 356.376 498.61 354.703 498.945C353.029 499.28 351.398 499.614 349.808 499.949L334.872 502.961V541.493V541.744H353.95C359.472 541.744 364.828 541.033 370.015 539.611C375.287 538.104 380.265 535.887 384.951 532.959L381.688 542.999H334.872H327.467Z" fill="#870711"/>
<path d="M391.233 542.999H389.978V498.819V454.639H393.994L451.478 535.469C451.646 534.632 451.729 534.004 451.729 533.586V498.819V454.639H452.984V498.819V542.999H448.592L391.358 462.546C391.275 462.881 391.233 463.383 391.233 464.053V498.819V542.999Z" fill="#870711"/>
<path d="M458.13 464.178C458.046 463.76 458.004 463.007 458.004 461.919C458.088 460.831 458.13 459.743 458.13 458.656V454.639H465.66V464.178V533.084V542.999H458.13V533.084V464.178Z" fill="#870711"/>
<path d="M193.131 566.756C195.074 566.756 196.859 567.186 198.485 568.044C200.112 568.858 201.467 569.987 202.552 571.433L200.722 572.856C199.773 571.23 198.44 569.919 196.723 568.925C195.051 567.931 193.199 567.434 191.165 567.434H186.489C185.495 567.434 184.568 567.638 183.71 568.044C182.851 568.406 182.083 568.903 181.406 569.535C180.773 570.168 180.276 570.913 179.914 571.772C179.553 572.63 179.372 573.557 179.372 574.551V596.578V601.865H175.373V596.578V572.043V571.84C175.328 571.614 175.306 571.23 175.306 570.687C175.351 570.1 175.373 569.513 175.373 568.925V566.756H179.372V568.248V570.959C179.96 569.739 180.818 568.745 181.948 567.976C183.123 567.163 184.433 566.756 185.879 566.756H193.131Z" fill="#454545"/>
<path d="M223.121 566.756C225.787 566.756 227.865 566.982 229.356 567.434C230.983 567.841 232.271 568.315 233.22 568.858C234.304 569.49 235.162 570.19 235.795 570.959L236.066 571.365L219.935 581.532L206.787 589.8C206.877 589.981 206.922 590.139 206.922 590.275C207.645 592.308 208.775 594.161 210.311 595.833C211.802 597.459 213.632 598.747 215.801 599.696C218.06 600.69 220.545 601.187 223.256 601.187C224.16 601.187 225.244 601.074 226.51 600.848C227.097 600.712 227.662 600.577 228.204 600.441C228.746 600.306 229.288 600.125 229.831 599.899C230.915 599.492 231.932 599.018 232.881 598.476C233.829 597.934 234.643 597.324 235.321 596.646L235.795 596.985C234.123 598.611 232.112 599.809 229.763 600.577C227.368 601.435 224.68 601.865 221.698 601.865C218.761 601.865 216.072 601.39 213.632 600.441C211.237 599.492 209.204 598.205 207.532 596.578C205.86 595.087 204.528 593.212 203.533 590.953C202.63 588.739 202.178 586.502 202.178 584.243C202.178 581.712 202.72 579.363 203.805 577.194C204.889 575.116 206.38 573.286 208.278 571.704C209.227 570.891 210.243 570.19 211.328 569.603C212.412 569.016 213.61 568.496 214.92 568.044C217.45 567.186 220.184 566.756 223.121 566.756ZM232.406 570.959C231.909 570.236 231.186 569.603 230.237 569.061C229.831 568.835 229.334 568.632 228.746 568.451C228.204 568.225 227.594 567.999 226.916 567.773C226.239 567.592 225.448 567.457 224.544 567.366C223.686 567.276 222.737 567.253 221.698 567.299C219.709 567.434 217.766 567.909 215.869 568.722C214.016 569.535 212.367 570.665 210.921 572.111C209.475 573.557 208.278 575.274 207.329 577.262C206.47 579.16 205.996 581.306 205.906 583.701C205.86 584.649 205.906 585.576 206.041 586.479C206.177 587.338 206.357 588.219 206.583 589.123L219.596 580.989L233.423 572.246L232.406 570.959Z" fill="#454545"/>
<path d="M275.379 596.578C275.379 597.662 275.582 598.566 275.989 599.289C276.396 599.967 276.915 600.486 277.548 600.848C278.18 601.209 278.903 601.458 279.717 601.594C280.575 601.684 281.456 601.706 282.36 601.661C284.438 601.526 286.788 601.029 289.409 600.17V601.865H275.379C274.249 601.865 273.278 601.481 272.465 600.712C271.697 599.944 271.312 598.995 271.312 597.866V567.366H268.94V566.756H271.312V559.369C271.312 558.42 270.906 557.652 270.092 557.064C269.324 556.477 268.398 556.07 267.314 555.844C266.274 555.573 265.19 555.46 264.06 555.506C262.931 555.551 262.027 555.754 261.349 556.116C260.626 556.477 259.971 556.951 259.384 557.539C258.796 558.081 258.39 558.736 258.164 559.504C257.983 559.911 257.893 560.431 257.893 561.063C257.893 561.877 258.006 562.667 258.232 563.435C258.503 564.158 258.842 564.881 259.248 565.604C259.655 566.282 260.129 566.96 260.672 567.638C261.033 568.089 261.417 568.473 261.824 568.79C262.276 569.106 262.682 569.49 263.044 569.942C263.631 570.665 263.925 571.478 263.925 572.382V572.517L260.265 572.043L260.333 571.907C260.423 571.32 260.333 570.8 260.062 570.349C259.836 569.987 259.384 569.535 258.706 568.993C258.119 568.586 257.125 568.202 255.724 567.841C254.323 567.57 252.922 567.434 251.522 567.434C250.166 567.434 248.901 567.592 247.726 567.909C246.461 568.225 245.354 568.699 244.405 569.332C243.456 569.965 242.688 570.687 242.101 571.501C241.559 572.314 241.288 573.24 241.288 574.28C241.288 575.635 241.92 576.81 243.185 577.804C243.818 578.301 244.518 578.775 245.286 579.227C246.1 579.679 246.958 580.108 247.862 580.515C249.85 581.374 251.906 582.164 254.029 582.887C256.198 583.61 258.254 584.423 260.197 585.327C262.095 586.186 263.699 587.18 265.009 588.309C266.32 589.484 266.975 590.885 266.975 592.511C266.975 594.228 266.5 595.697 265.551 596.917C264.557 598.137 263.337 599.108 261.892 599.831C260.4 600.554 258.729 601.096 256.876 601.458C255.972 601.684 255.046 601.819 254.097 601.865C253.194 601.955 252.29 602 251.386 602C249.534 602 247.907 601.865 246.506 601.594C244.428 601.187 242.914 600.667 241.965 600.035C240.971 599.447 240.271 598.837 239.864 598.205C239.412 597.482 239.209 596.714 239.254 595.9L239.322 595.765L239.458 595.833C239.638 595.878 239.842 595.923 240.068 595.968C240.293 595.968 240.587 596.013 240.949 596.104C241.265 596.194 241.559 596.262 241.83 596.307C242.146 596.307 242.44 596.352 242.711 596.443H242.846V596.578C242.711 597.12 242.779 597.662 243.05 598.205C243.276 598.657 243.682 599.108 244.27 599.56C244.857 600.102 245.851 600.509 247.252 600.78C250.279 601.458 253.239 601.413 256.131 600.645C256.899 600.464 257.599 600.238 258.232 599.967C258.909 599.651 259.542 599.312 260.129 598.95C261.214 598.318 262.117 597.459 262.84 596.375C263.518 595.381 263.857 594.228 263.857 592.918C263.857 591.789 263.292 590.772 262.163 589.868C260.852 589.01 259.361 588.219 257.689 587.496C255.837 586.728 253.917 586.005 251.928 585.327C250.889 584.966 249.873 584.604 248.878 584.243C247.884 583.836 246.936 583.407 246.032 582.955C244.134 582.051 242.53 581.057 241.22 579.973C239.864 578.843 239.096 577.51 238.915 575.974C238.689 574.302 238.915 572.902 239.593 571.772C240.271 570.552 241.242 569.58 242.508 568.858C243.14 568.496 243.818 568.18 244.541 567.909C245.264 567.638 246.032 567.389 246.845 567.163C248.562 566.802 250.279 566.621 251.996 566.621C252.403 566.621 252.81 566.643 253.216 566.689C253.623 566.689 254.007 566.711 254.368 566.756C254.73 566.802 255.114 566.847 255.521 566.892C255.927 566.892 256.311 566.937 256.673 567.028C257.305 567.118 257.848 567.231 258.299 567.366C258.796 567.502 259.271 567.638 259.723 567.773C259.045 566.96 258.412 566.011 257.825 564.926C257.328 563.978 256.966 562.916 256.741 561.741C256.56 560.566 256.718 559.459 257.215 558.42C257.802 557.155 258.706 556.251 259.926 555.709C261.191 555.122 262.434 554.647 263.654 554.286C264.286 554.105 265.077 553.969 266.026 553.879C267.02 553.789 267.991 553.766 268.94 553.811C269.934 553.856 270.883 553.992 271.787 554.218C272.691 554.444 273.391 554.783 273.888 555.234C274.475 555.731 274.859 556.364 275.04 557.132C275.266 557.855 275.379 558.601 275.379 559.369V566.756H286.223L288.053 572.111C286.11 570.936 284.077 569.987 281.953 569.264C279.83 568.496 277.638 567.954 275.379 567.638V596.578Z" fill="#454545"/>
<path d="M317.914 577.058V574.28C317.914 573.331 317.733 572.45 317.372 571.636C317.01 570.778 316.513 570.032 315.881 569.4C315.293 568.767 314.57 568.27 313.712 567.909C312.899 567.547 312.017 567.366 311.069 567.366C308.086 567.366 305.172 567.773 302.325 568.586C299.524 569.4 296.836 570.575 294.26 572.111L296.09 566.756H315.067C316.016 566.756 316.897 566.937 317.711 567.299C318.569 567.66 319.315 568.157 319.947 568.79C320.58 569.377 321.077 570.1 321.438 570.959C321.8 571.772 321.981 572.653 321.981 573.602V601.865H317.914V601.119V593.664L309.51 599.696C307.431 601.142 305.127 601.865 302.597 601.865C300.97 601.865 299.434 601.571 297.988 600.984C296.587 600.351 295.344 599.492 294.26 598.408C293.176 597.324 292.317 596.081 291.685 594.68C291.097 593.234 290.803 591.698 290.803 590.072V589.529C290.803 587.903 291.097 586.389 291.685 584.988C292.317 583.542 293.176 582.277 294.26 581.193C295.344 580.108 296.587 579.272 297.988 578.685C299.434 578.053 300.97 577.736 302.597 577.736H317.914V577.058ZM304.427 578.414C302.89 578.414 301.444 578.708 300.089 579.295C298.778 579.882 297.604 580.696 296.564 581.735C295.57 582.729 294.78 583.904 294.192 585.259C293.605 586.615 293.311 588.061 293.311 589.597V590.139C293.311 591.676 293.605 593.121 294.192 594.477C294.78 595.833 295.57 597.03 296.564 598.069C297.604 599.063 298.778 599.854 300.089 600.441C301.444 601.029 302.89 601.322 304.427 601.322C304.833 601.322 305.308 601.209 305.85 600.984C306.392 600.758 306.912 600.509 307.409 600.238C307.951 599.922 308.516 599.56 309.103 599.154L317.914 592.85V578.346L304.427 578.414Z" fill="#454545"/>
<path d="M350.243 601.865C350.198 601.368 350.176 600.871 350.176 600.374V597.662C349.633 598.928 348.775 599.944 347.6 600.712C346.47 601.481 345.183 601.865 343.737 601.865H336.485C334.858 601.865 333.322 601.571 331.876 600.984C330.43 600.351 329.165 599.492 328.08 598.408C327.041 597.324 326.205 596.081 325.573 594.68C324.985 593.234 324.692 591.698 324.692 590.072V566.756H327.267V590.072C327.267 591.608 327.561 593.054 328.148 594.409C328.736 595.765 329.526 596.94 330.52 597.934C331.56 598.928 332.757 599.718 334.113 600.306C335.468 600.893 336.914 601.187 338.45 601.187H343.059C344.053 601.187 344.979 601.006 345.838 600.645C346.696 600.283 347.442 599.786 348.075 599.154C348.752 598.476 349.272 597.708 349.633 596.849C350.04 595.991 350.243 595.064 350.243 594.07V572.043V571.84C350.198 571.614 350.176 571.23 350.176 570.687C350.221 570.1 350.243 569.513 350.243 568.925V566.756H354.242V572.043V601.865H350.243Z" fill="#454545"/>
<path d="M374.75 566.756C376.693 566.756 378.478 567.186 380.105 568.044C381.731 568.858 383.087 569.987 384.171 571.433L382.341 572.856C381.392 571.23 380.059 569.919 378.342 568.925C376.671 567.931 374.818 567.434 372.785 567.434H368.108C367.114 567.434 366.188 567.638 365.329 568.044C364.471 568.406 363.703 568.903 363.025 569.535C362.392 570.168 361.895 570.913 361.534 571.772C361.172 572.63 360.992 573.557 360.992 574.551V596.578V601.865H356.993V596.578V572.043V571.84C356.948 571.614 356.925 571.23 356.925 570.687C356.97 570.1 356.993 569.513 356.993 568.925V566.756H360.992V568.248V570.959C361.579 569.739 362.438 568.745 363.567 567.976C364.742 567.163 366.052 566.756 367.498 566.756H374.75Z" fill="#454545"/>
<path d="M411.967 577.058V574.28C411.967 573.331 411.786 572.45 411.425 571.636C411.063 570.778 410.566 570.032 409.934 569.4C409.346 568.767 408.623 568.27 407.765 567.909C406.952 567.547 406.07 567.366 405.122 567.366C402.139 567.366 399.225 567.773 396.378 568.586C393.577 569.4 390.889 570.575 388.313 572.111L390.143 566.756H409.12C410.069 566.756 410.95 566.937 411.764 567.299C412.622 567.66 413.368 568.157 414 568.79C414.633 569.377 415.13 570.1 415.491 570.959C415.853 571.772 416.034 572.653 416.034 573.602V601.865H411.967V601.119V593.664L403.563 599.696C401.484 601.142 399.18 601.865 396.65 601.865C395.023 601.865 393.487 601.571 392.041 600.984C390.64 600.351 389.397 599.492 388.313 598.408C387.229 597.324 386.37 596.081 385.738 594.68C385.15 593.234 384.856 591.698 384.856 590.072V589.529C384.856 587.903 385.15 586.389 385.738 584.988C386.37 583.542 387.229 582.277 388.313 581.193C389.397 580.108 390.64 579.272 392.041 578.685C393.487 578.053 395.023 577.736 396.65 577.736H411.967V577.058ZM398.479 578.414C396.943 578.414 395.497 578.708 394.142 579.295C392.831 579.882 391.657 580.696 390.617 581.735C389.623 582.729 388.833 583.904 388.245 585.259C387.658 586.615 387.364 588.061 387.364 589.597V590.139C387.364 591.676 387.658 593.121 388.245 594.477C388.833 595.833 389.623 597.03 390.617 598.069C391.657 599.063 392.831 599.854 394.142 600.441C395.497 601.029 396.943 601.322 398.479 601.322C398.886 601.322 399.361 601.209 399.903 600.984C400.445 600.758 400.965 600.509 401.462 600.238C402.004 599.922 402.569 599.56 403.156 599.154L411.967 592.85V578.346L398.479 578.414Z" fill="#454545"/>
<path d="M445.787 601.865V578.55C445.787 577.013 445.494 575.567 444.906 574.212C444.319 572.856 443.506 571.682 442.466 570.687C441.472 569.693 440.297 568.903 438.942 568.315C437.586 567.728 436.141 567.434 434.604 567.434H429.995C429.001 567.434 428.075 567.638 427.217 568.044C426.358 568.406 425.59 568.903 424.912 569.535C424.28 570.168 423.76 570.913 423.353 571.772C422.992 572.63 422.811 573.557 422.811 574.551V596.578V601.865H418.812V596.578V572.043V571.84C418.767 571.614 418.745 571.23 418.745 570.687C418.79 570.1 418.812 569.513 418.812 568.925V566.756H422.811V568.248C422.811 568.699 422.811 569.174 422.811 569.671C422.856 570.168 422.879 570.597 422.879 570.959C423.421 569.739 424.257 568.745 425.387 567.976C426.561 567.163 427.872 566.756 429.318 566.756H436.57C438.196 566.756 439.733 567.073 441.179 567.705C442.624 568.293 443.867 569.129 444.906 570.213C445.991 571.297 446.827 572.563 447.414 574.009C448.047 575.409 448.363 576.923 448.363 578.55V601.865H445.787Z" fill="#454545"/>
<path d="M470.496 598.476C471.445 597.934 472.258 597.324 472.936 596.646L473.41 596.985C471.829 598.566 469.818 599.764 467.378 600.577C465.074 601.435 462.498 601.865 459.652 601.865H459.584H458.229C456.557 601.865 455.133 601.277 453.959 600.102C452.784 598.928 452.196 597.504 452.196 595.833V567.366H452.129H449.824V566.756H452.196V559.369C452.151 559.098 452.129 558.668 452.129 558.081C452.129 557.494 452.151 556.884 452.196 556.251C452.196 555.664 452.377 555.189 452.739 554.828C453.145 554.421 453.642 554.218 454.23 554.218C454.772 554.218 455.246 554.421 455.653 554.828C456.06 555.189 456.263 555.664 456.263 556.251C456.263 556.884 456.263 557.494 456.263 558.081C456.263 558.668 456.24 559.098 456.195 559.369V564.723C456.195 565.265 456.399 565.74 456.805 566.146C457.212 566.553 457.686 566.756 458.229 566.756H465.616C466.61 566.756 467.265 567.208 467.582 568.112L468.937 572.111C465.729 570.213 462.318 568.88 458.703 568.112C458.07 567.976 457.483 568.112 456.941 568.519C456.444 568.925 456.195 569.445 456.195 570.077V596.578V596.646C456.24 597.866 456.715 598.928 457.619 599.831C458.522 600.69 459.584 601.142 460.804 601.187H460.872C461.776 601.187 462.86 601.074 464.125 600.848C464.713 600.712 465.277 600.577 465.82 600.441C466.362 600.306 466.904 600.125 467.446 599.899C468.531 599.492 469.547 599.018 470.496 598.476Z" fill="#454545"/>
<path d="M11.5 409.5H638.5" stroke="#870711"/>
</svg>
